<svg xmlns="http://www.w3.org/2000/svg" xmlns:xlink="http://www.w3.org/1999/xlink" width="50" zoomAndPan="magnify" viewBox="0 0 37.5 37.499999" height="50" preserveAspectRatio="xMidYMid meet" version="1.0"><defs><clipPath id="8df40914a9"><path d="M 0 0 L 37.007812 0 L 37.007812 37.007812 L 0 37.007812 Z M 0 0 " clip-rule="nonzero"/></clipPath></defs><g clip-path="url(#8df40914a9)"><path fill="#f47521" d="M 19.140625 0.0429688 C 8.570312 0.0429688 0 8.613281 0 19.183594 C 0 32.398438 9.039062 36.183594 15.128906 37.433594 C 15.164062 37.441406 15.195312 37.445312 15.226562 37.445312 C 15.667969 37.445312 15.839844 36.808594 15.394531 36.613281 C 8.949219 33.792969 4.375 27.300781 5.359375 19.613281 C 6.3125 12.15625 12.394531 6.195312 19.867188 5.367188 C 20.503906 5.296875 21.132812 5.265625 21.75 5.265625 C 28.3125 5.265625 33.972656 9.089844 36.636719 14.628906 C 36.722656 14.808594 36.875 14.886719 37.027344 14.886719 C 37.285156 14.886719 37.539062 14.667969 37.457031 14.34375 C 35.9375 8.492188 31.324219 0.0429688 19.140625 0.0429688 Z M 22.621094 9.613281 C 15.210938 9.613281 9.238281 15.792969 9.585938 23.28125 C 9.890625 29.925781 15.359375 35.394531 22.003906 35.699219 C 22.210938 35.710938 22.417969 35.714844 22.621094 35.714844 C 29.832031 35.714844 35.671875 29.875 35.671875 22.664062 C 35.671875 21.636719 35.550781 20.636719 35.328125 19.679688 C 35.273438 19.464844 35.09375 19.34375 34.902344 19.34375 C 34.769531 19.34375 34.632812 19.402344 34.539062 19.53125 C 33.507812 20.90625 31.867188 21.796875 30.015625 21.796875 C 29.929688 21.796875 29.835938 21.792969 29.746094 21.789062 C 27 21.660156 24.664062 19.460938 24.390625 16.722656 C 24.15625 14.378906 25.355469 12.296875 27.214844 11.234375 C 27.542969 11.046875 27.515625 10.570312 27.164062 10.4375 C 25.75 9.910156 24.222656 9.613281 22.621094 9.613281 Z M 35.929688 20.574219 L 35.933594 20.574219 Z M 35.929688 20.574219 " fill-opacity="1" fill-rule="nonzero"/></g></svg>