<svg xmlns="http://www.w3.org/2000/svg" xmlns:xlink="http://www.w3.org/1999/xlink" width="50" zoomAndPan="magnify" viewBox="0 0 37.5 37.499999" height="50" preserveAspectRatio="xMidYMid meet" version="1.0"><defs><clipPath id="a0169d235c"><path d="M 4.898438 0 L 32.648438 0 L 32.648438 37.007812 L 4.898438 37.007812 Z M 4.898438 0 " clip-rule="nonzero"/></clipPath></defs><g clip-path="url(#a0169d235c)"><path fill="#dadada" d="M 30.96875 37.335938 C 30.503906 37.335938 30.109375 37.164062 29.789062 36.828125 L 18.773438 25.164062 L 7.757812 36.828125 C 7.527344 37.066406 7.25 37.222656 6.925781 37.292969 C 6.601562 37.363281 6.285156 37.339844 5.976562 37.21875 C 5.667969 37.09375 5.421875 36.894531 5.234375 36.621094 C 5.046875 36.347656 4.953125 36.046875 4.953125 35.714844 L 4.953125 1.625 C 4.953125 1.40625 4.992188 1.199219 5.074219 1.003906 C 5.15625 0.804688 5.273438 0.628906 5.425781 0.476562 C 5.582031 0.324219 5.757812 0.207031 5.957031 0.125 C 6.15625 0.0429688 6.363281 0 6.578125 0 L 30.96875 0 C 31.183594 0 31.390625 0.0429688 31.589844 0.125 C 31.789062 0.207031 31.964844 0.324219 32.121094 0.476562 C 32.273438 0.628906 32.390625 0.804688 32.472656 1.003906 C 32.554688 1.199219 32.59375 1.40625 32.59375 1.625 L 32.59375 35.714844 C 32.59375 35.929688 32.554688 36.136719 32.472656 36.335938 C 32.390625 36.535156 32.273438 36.710938 32.121094 36.863281 C 31.964844 37.015625 31.789062 37.132812 31.589844 37.214844 C 31.390625 37.296875 31.183594 37.335938 30.96875 37.335938 Z M 18.773438 21.210938 C 19.238281 21.210938 19.632812 21.382812 19.953125 21.722656 L 29.34375 31.65625 L 29.34375 3.246094 L 8.203125 3.246094 L 8.203125 31.65625 L 17.59375 21.710938 C 17.914062 21.375 18.308594 21.207031 18.773438 21.210938 Z M 18.773438 21.210938 " fill-opacity="1" fill-rule="nonzero"/></g></svg>