<svg xmlns="http://www.w3.org/2000/svg" xmlns:xlink="http://www.w3.org/1999/xlink" width="50" zoomAndPan="magnify" viewBox="0 0 37.5 37.499999" height="50" preserveAspectRatio="xMidYMid meet" version="1.0"><defs><clipPath id="708b3ae8d9"><path d="M 0 0 L 37.007812 0 L 37.007812 37.007812 L 0 37.007812 Z M 0 0 " clip-rule="nonzero"/></clipPath></defs><g clip-path="url(#708b3ae8d9)"><path fill="#a0a0a0" d="M 34.089844 0 L 3.410156 0 C 1.527344 0 0 1.527344 0 3.410156 L 0 34.089844 C 0 35.972656 1.527344 37.5 3.410156 37.5 L 20.453125 37.5 L 20.453125 22.160156 L 15.339844 22.160156 L 15.339844 17.046875 L 20.453125 17.046875 L 20.453125 14.300781 C 20.453125 9.101562 22.988281 6.816406 27.308594 6.816406 C 29.378906 6.816406 30.472656 6.972656 30.992188 7.042969 L 30.992188 11.933594 L 28.042969 11.933594 C 26.210938 11.933594 25.566406 12.898438 25.566406 14.859375 L 25.566406 17.046875 L 30.945312 17.046875 L 30.214844 22.160156 L 25.566406 22.160156 L 25.566406 37.5 L 34.089844 37.5 C 35.972656 37.5 37.5 35.972656 37.5 34.089844 L 37.5 3.410156 C 37.5 1.527344 35.972656 0 34.089844 0 Z M 34.089844 0 " fill-opacity="1" fill-rule="nonzero"/></g></svg>