<svg xmlns="http://www.w3.org/2000/svg" xmlns:xlink="http://www.w3.org/1999/xlink" width="50" zoomAndPan="magnify" viewBox="0 0 37.5 37.499999" height="50" preserveAspectRatio="xMidYMid meet" version="1.0"><defs><clipPath id="cad0e9b287"><path d="M 0 0 L 37.007812 0 L 37.007812 37.007812 L 0 37.007812 Z M 0 0 " clip-rule="nonzero"/></clipPath></defs><g clip-path="url(#cad0e9b287)"><path fill="#a0a0a0" d="M 11.070312 0.230469 C 4.160156 0.546875 0.53125 4.433594 0.230469 11.066406 C 0 16.09375 0 21.410156 0.230469 26.433594 C 0.53125 33.070312 4.160156 36.953125 11.070312 37.269531 C 16.09375 37.5 21.40625 37.5 26.433594 37.269531 C 33.070312 36.964844 36.953125 33.34375 37.269531 26.433594 C 37.5 21.40625 37.496094 16.09375 37.269531 11.066406 C 36.960938 4.304688 33.199219 0.539062 26.433594 0.230469 C 21.40625 0 16.09375 0 11.070312 0.230469 Z M 30.933594 8.804688 C 30.933594 10.039062 29.929688 11.039062 28.695312 11.039062 C 27.460938 11.039062 26.460938 10.039062 26.460938 8.804688 C 26.460938 7.570312 27.460938 6.566406 28.695312 6.566406 C 29.929688 6.566406 30.933594 7.570312 30.933594 8.804688 Z M 18.75 24.960938 C 15.320312 24.960938 12.539062 22.179688 12.539062 18.75 C 12.539062 15.320312 15.320312 12.539062 18.75 12.539062 C 22.179688 12.539062 24.960938 15.320312 24.960938 18.75 C 24.960938 22.179688 22.179688 24.960938 18.75 24.960938 Z M 18.75 9.183594 C 13.46875 9.183594 9.183594 13.464844 9.183594 18.75 C 9.183594 24.035156 13.464844 28.316406 18.75 28.316406 C 24.035156 28.316406 28.320312 24.035156 28.320312 18.75 C 28.320312 13.464844 24.035156 9.183594 18.75 9.183594 Z M 26.277344 3.582031 C 31.296875 3.8125 33.6875 6.203125 33.917969 11.222656 C 34.144531 16.140625 34.140625 21.359375 33.917969 26.277344 C 33.683594 31.441406 31.167969 33.695312 26.277344 33.917969 C 21.355469 34.140625 16.144531 34.140625 11.222656 33.917969 C 6.332031 33.695312 3.820312 31.441406 3.585938 26.277344 C 3.359375 21.359375 3.359375 16.140625 3.585938 11.222656 C 3.804688 6.332031 6.058594 3.820312 11.222656 3.582031 C 16.144531 3.359375 21.355469 3.359375 26.277344 3.582031 Z M 26.277344 3.582031 " fill-opacity="1" fill-rule="evenodd"/></g></svg>