<svg xmlns="http://www.w3.org/2000/svg" xmlns:xlink="http://www.w3.org/1999/xlink" width="50" zoomAndPan="magnify" viewBox="0 0 37.5 37.499999" height="50" preserveAspectRatio="xMidYMid meet" version="1.0"><defs><clipPath id="6fb9a9077f"><path d="M 2.671875 0 L 34.921875 0 L 34.921875 37.007812 L 2.671875 37.007812 Z M 2.671875 0 " clip-rule="nonzero"/></clipPath></defs><g clip-path="url(#6fb9a9077f)"><path fill="#141519" d="M 3.65625 0.234375 C 4.210938 -0.0820312 4.898438 -0.078125 5.449219 0.25 L 33.964844 17.132812 C 34.507812 17.453125 34.839844 18.035156 34.839844 18.660156 C 34.839844 19.289062 34.507812 19.867188 33.964844 20.1875 L 5.449219 37.074219 C 4.898438 37.398438 4.210938 37.40625 3.65625 37.089844 C 3.097656 36.773438 2.753906 36.183594 2.753906 35.546875 L 2.753906 1.777344 C 2.753906 1.136719 3.097656 0.546875 3.65625 0.234375 Z M 6.320312 4.898438 L 6.320312 32.421875 L 29.566406 18.660156 Z M 6.320312 4.898438 " fill-opacity="1" fill-rule="evenodd"/></g></svg>