<svg xmlns="http://www.w3.org/2000/svg" xmlns:xlink="http://www.w3.org/1999/xlink" width="50" zoomAndPan="magnify" viewBox="0 0 37.5 37.499999" height="50" preserveAspectRatio="xMidYMid meet" version="1.0"><defs><clipPath id="9629a1c2aa"><path d="M 22 23 L 37.007812 23 L 37.007812 37.007812 L 22 37.007812 Z M 22 23 " clip-rule="nonzero"/></clipPath></defs><path fill="#dadada" d="M 15.488281 29.945312 C 14.902344 29.945312 14.316406 29.910156 13.734375 29.839844 C 13.152344 29.765625 12.578125 29.660156 12.007812 29.515625 C 11.441406 29.375 10.882812 29.199219 10.335938 28.988281 C 9.789062 28.777344 9.257812 28.535156 8.738281 28.257812 C 8.222656 27.980469 7.722656 27.675781 7.246094 27.335938 C 6.765625 27 6.308594 26.632812 5.875 26.242188 C 5.441406 25.847656 5.03125 25.429688 4.648438 24.984375 C 4.265625 24.542969 3.910156 24.074219 3.585938 23.589844 C 3.257812 23.101562 2.964844 22.59375 2.699219 22.070312 C 2.4375 21.546875 2.207031 21.011719 2.007812 20.457031 C 1.8125 19.90625 1.648438 19.34375 1.519531 18.773438 C 1.390625 18.199219 1.296875 17.621094 1.242188 17.039062 C 1.183594 16.457031 1.164062 15.871094 1.175781 15.285156 C 1.191406 14.699219 1.242188 14.117188 1.328125 13.535156 C 1.414062 12.957031 1.535156 12.382812 1.691406 11.820312 C 1.847656 11.253906 2.039062 10.703125 2.261719 10.160156 C 2.488281 9.617188 2.742188 9.09375 3.03125 8.582031 C 3.320312 8.074219 3.640625 7.582031 3.988281 7.109375 C 4.339844 6.640625 4.714844 6.191406 5.121094 5.769531 C 5.523438 5.34375 5.953125 4.945312 6.40625 4.574219 C 6.859375 4.203125 7.335938 3.859375 7.828125 3.546875 C 8.324219 3.234375 8.835938 2.949219 9.367188 2.699219 C 9.898438 2.449219 10.441406 2.234375 10.996094 2.050781 C 11.554688 1.867188 12.121094 1.714844 12.695312 1.601562 C 13.269531 1.488281 13.851562 1.410156 14.433594 1.367188 C 15.019531 1.324219 15.605469 1.316406 16.191406 1.347656 C 16.773438 1.375 17.355469 1.441406 17.933594 1.539062 C 18.511719 1.640625 19.082031 1.777344 19.640625 1.945312 C 20.203125 2.117188 20.75 2.320312 21.285156 2.558594 C 21.824219 2.796875 22.34375 3.066406 22.84375 3.367188 C 23.347656 3.671875 23.828125 4.003906 24.292969 4.363281 C 24.753906 4.722656 25.191406 5.113281 25.605469 5.527344 C 26.101562 6.023438 26.5625 6.554688 26.980469 7.121094 C 27.402344 7.683594 27.777344 8.277344 28.109375 8.898438 C 28.441406 9.519531 28.726562 10.160156 28.960938 10.824219 C 29.199219 11.484375 29.386719 12.160156 29.523438 12.851562 C 29.660156 13.542969 29.746094 14.238281 29.78125 14.941406 C 29.816406 15.644531 29.800781 16.34375 29.730469 17.046875 C 29.664062 17.746094 29.542969 18.4375 29.371094 19.121094 C 29.199219 19.800781 28.980469 20.46875 28.710938 21.117188 C 28.441406 21.769531 28.125 22.394531 27.765625 23 C 27.402344 23.601562 26.996094 24.175781 26.550781 24.71875 C 26.105469 25.265625 25.621094 25.773438 25.097656 26.246094 C 24.578125 26.714844 24.023438 27.148438 23.4375 27.539062 C 22.851562 27.929688 22.242188 28.273438 21.605469 28.574219 C 20.96875 28.875 20.316406 29.128906 19.640625 29.332031 C 18.96875 29.535156 18.285156 29.6875 17.585938 29.792969 C 16.890625 29.894531 16.191406 29.945312 15.488281 29.945312 Z M 15.488281 4.480469 C 15.058594 4.480469 14.636719 4.503906 14.210938 4.550781 C 13.785156 4.597656 13.367188 4.671875 12.949219 4.765625 C 12.535156 4.863281 12.125 4.984375 11.722656 5.125 C 11.320312 5.269531 10.929688 5.433594 10.542969 5.621094 C 10.160156 5.8125 9.789062 6.019531 9.429688 6.25 C 9.070312 6.480469 8.726562 6.730469 8.394531 7.003906 C 8.066406 7.273438 7.75 7.558594 7.453125 7.867188 C 7.15625 8.171875 6.878906 8.496094 6.617188 8.832031 C 6.355469 9.171875 6.117188 9.523438 5.898438 9.890625 C 5.675781 10.253906 5.476562 10.632812 5.300781 11.019531 C 5.125 11.410156 4.96875 11.808594 4.839844 12.214844 C 4.707031 12.621094 4.601562 13.03125 4.515625 13.449219 C 4.433594 13.871094 4.371094 14.292969 4.335938 14.71875 C 4.300781 15.140625 4.289062 15.570312 4.304688 15.996094 C 4.316406 16.421875 4.355469 16.847656 4.417969 17.269531 C 4.480469 17.691406 4.566406 18.109375 4.675781 18.519531 C 4.785156 18.933594 4.917969 19.339844 5.074219 19.734375 C 5.230469 20.132812 5.410156 20.519531 5.613281 20.898438 C 5.8125 21.273438 6.035156 21.636719 6.277344 21.988281 C 6.519531 22.339844 6.78125 22.675781 7.0625 22.996094 C 7.34375 23.320312 7.640625 23.621094 7.957031 23.910156 C 8.273438 24.195312 8.605469 24.464844 8.953125 24.714844 C 9.300781 24.960938 9.660156 25.191406 10.03125 25.398438 C 10.40625 25.605469 10.789062 25.792969 11.183594 25.957031 C 11.578125 26.121094 11.980469 26.257812 12.390625 26.378906 C 12.800781 26.496094 13.214844 26.589844 13.636719 26.65625 C 14.058594 26.726562 14.484375 26.773438 14.910156 26.792969 C 15.335938 26.816406 15.761719 26.8125 16.1875 26.785156 C 16.613281 26.757812 17.035156 26.703125 17.457031 26.628906 C 17.878906 26.550781 18.292969 26.453125 18.699219 26.328125 C 19.109375 26.203125 19.507812 26.058594 19.902344 25.886719 C 20.292969 25.71875 20.671875 25.527344 21.042969 25.3125 C 21.414062 25.101562 21.769531 24.867188 22.113281 24.613281 C 22.453125 24.359375 22.78125 24.085938 23.09375 23.792969 C 23.40625 23.5 23.699219 23.191406 23.976562 22.867188 C 24.25 22.539062 24.507812 22.199219 24.746094 21.84375 C 24.980469 21.492188 25.199219 21.125 25.394531 20.742188 C 25.589844 20.363281 25.761719 19.972656 25.910156 19.574219 C 26.0625 19.175781 26.1875 18.769531 26.292969 18.355469 C 26.394531 17.941406 26.476562 17.519531 26.53125 17.097656 C 26.585938 16.675781 26.617188 16.25 26.625 15.824219 C 26.632812 15.394531 26.613281 14.96875 26.570312 14.542969 C 26.53125 14.121094 26.464844 13.699219 26.371094 13.28125 C 26.28125 12.863281 26.167969 12.453125 26.03125 12.050781 C 25.894531 11.644531 25.734375 11.25 25.550781 10.863281 C 25.367188 10.480469 25.164062 10.105469 24.9375 9.742188 C 24.710938 9.378906 24.464844 9.03125 24.199219 8.699219 C 23.933594 8.363281 23.652344 8.046875 23.347656 7.742188 C 22.304688 6.699219 21.105469 5.898438 19.742188 5.332031 C 18.378906 4.765625 16.960938 4.484375 15.488281 4.480469 Z M 15.488281 4.480469 " fill-opacity="1" fill-rule="nonzero"/><g clip-path="url(#9629a1c2aa)"><path fill="#dadada" d="M 35.769531 37.5 C 35.335938 37.5 34.96875 37.34375 34.660156 37.035156 L 23.378906 25.761719 C 23.234375 25.613281 23.121094 25.445312 23.039062 25.253906 C 22.960938 25.058594 22.917969 24.859375 22.917969 24.648438 C 22.917969 24.441406 22.960938 24.242188 23.039062 24.046875 C 23.121094 23.855469 23.234375 23.683594 23.378906 23.539062 C 23.527344 23.390625 23.699219 23.277344 23.890625 23.195312 C 24.082031 23.117188 24.285156 23.078125 24.492188 23.078125 C 24.703125 23.078125 24.902344 23.117188 25.09375 23.195312 C 25.289062 23.277344 25.457031 23.390625 25.605469 23.539062 L 36.878906 34.820312 C 37.101562 35.042969 37.246094 35.3125 37.304688 35.621094 C 37.367188 35.933594 37.339844 36.234375 37.21875 36.527344 C 37.097656 36.820312 36.902344 37.054688 36.640625 37.234375 C 36.378906 37.410156 36.085938 37.5 35.769531 37.5 Z M 35.769531 37.5 " fill-opacity="1" fill-rule="nonzero"/></g></svg>