<svg xmlns="http://www.w3.org/2000/svg" xmlns:xlink="http://www.w3.org/1999/xlink" width="50" zoomAndPan="magnify" viewBox="0 0 37.5 37.499999" height="50" preserveAspectRatio="xMidYMid meet" version="1.0"><defs><clipPath id="ba3f6a84fb"><path d="M 1 1 L 33 1 L 33 36 L 1 36 Z M 1 1 " clip-rule="nonzero"/></clipPath><clipPath id="ef074bf0e9"><path d="M 15.625 3.125 C 15.625 2.261719 16.324219 1.5625 17.1875 1.5625 L 21.875 1.5625 C 22.738281 1.5625 23.4375 2.261719 23.4375 3.125 C 23.4375 7.441406 26.933594 10.9375 31.25 10.9375 C 32.113281 10.9375 32.8125 11.636719 32.8125 12.5 L 32.8125 17.1875 C 32.8125 18.050781 32.113281 18.75 31.25 18.75 C 28.40625 18.75 25.734375 17.988281 23.4375 16.660156 L 23.4375 25 C 23.4375 31.039062 18.539062 35.9375 12.5 35.9375 C 6.460938 35.9375 1.5625 31.039062 1.5625 25 C 1.5625 18.960938 6.460938 14.0625 12.5 14.0625 C 13.363281 14.0625 14.0625 14.761719 14.0625 15.625 L 14.0625 20.3125 C 14.0625 21.175781 13.363281 21.875 12.5 21.875 C 10.773438 21.875 9.375 23.273438 9.375 25 C 9.375 26.726562 10.773438 28.125 12.5 28.125 C 14.226562 28.125 15.625 26.726562 15.625 25 Z M 18.75 4.6875 L 18.75 25 C 18.75 28.453125 15.953125 31.25 12.5 31.25 C 9.046875 31.25 6.25 28.453125 6.25 25 C 6.25 22.085938 8.242188 19.640625 10.9375 18.945312 L 10.9375 17.34375 C 7.371094 18.066406 4.6875 21.21875 4.6875 25 C 4.6875 29.316406 8.183594 32.8125 12.5 32.8125 C 16.816406 32.8125 20.3125 29.316406 20.3125 25 L 20.3125 13.605469 C 20.3125 12.992188 20.675781 12.433594 21.238281 12.179688 C 21.800781 11.929688 22.457031 12.03125 22.917969 12.441406 C 24.765625 14.09375 27.101562 15.207031 29.6875 15.527344 L 29.6875 13.953125 C 24.898438 13.265625 21.109375 9.476562 20.421875 4.6875 Z M 18.75 4.6875 " clip-rule="evenodd"/></clipPath></defs><g clip-path="url(#ba3f6a84fb)"><g clip-path="url(#ef074bf0e9)"><path fill="#a0a0a0" d="M 1.5625 1.5625 L 1.5625 35.9375 L 32.8125 35.9375 L 32.8125 1.5625 Z M 1.5625 1.5625 " fill-opacity="1" fill-rule="nonzero"/></g></g></svg>