<svg xmlns="http://www.w3.org/2000/svg" xmlns:xlink="http://www.w3.org/1999/xlink" width="50" zoomAndPan="magnify" viewBox="0 0 37.5 37.499999" height="50" preserveAspectRatio="xMidYMid meet" version="1.0"><defs><clipPath id="3159c695f8"><path d="M 0 0 L 37.007812 0 L 37.007812 37.007812 L 0 37.007812 Z M 0 0 " clip-rule="nonzero"/></clipPath></defs><g clip-path="url(#3159c695f8)"><path fill="#a0a0a0" d="M 37.5 18.75 C 37.5 29.109375 29.109375 37.5 18.75 37.5 C 8.390625 37.5 0 29.109375 0 18.75 C 0 8.390625 8.390625 0 18.75 0 C 29.109375 0 37.5 8.390625 37.5 18.75 Z M 15.320312 28.640625 C 23.632812 28.640625 28.179688 21.75 28.179688 15.777344 C 28.179688 15.582031 28.179688 15.382812 28.171875 15.195312 C 29.054688 14.558594 29.820312 13.761719 30.429688 12.851562 C 29.625 13.210938 28.753906 13.453125 27.835938 13.566406 C 28.773438 13.003906 29.484375 12.121094 29.820312 11.0625 C 28.949219 11.578125 27.984375 11.953125 26.953125 12.160156 C 26.128906 11.277344 24.957031 10.734375 23.652344 10.734375 C 21.160156 10.734375 19.132812 12.757812 19.132812 15.253906 C 19.132812 15.609375 19.171875 15.957031 19.257812 16.285156 C 15.496094 16.097656 12.167969 14.296875 9.9375 11.558594 C 9.554688 12.226562 9.328125 13.003906 9.328125 13.828125 C 9.328125 15.394531 10.125 16.78125 11.34375 17.585938 C 10.601562 17.570312 9.910156 17.363281 9.300781 17.023438 C 9.300781 17.042969 9.300781 17.0625 9.300781 17.082031 C 9.300781 19.273438 10.855469 21.09375 12.929688 21.515625 C 12.554688 21.617188 12.148438 21.675781 11.738281 21.675781 C 11.445312 21.675781 11.164062 21.648438 10.882812 21.589844 C 11.457031 23.390625 13.125 24.695312 15.101562 24.730469 C 13.554688 25.941406 11.605469 26.664062 9.488281 26.664062 C 9.121094 26.664062 8.765625 26.644531 8.410156 26.597656 C 10.386719 27.890625 12.769531 28.640625 15.320312 28.640625 " fill-opacity="1" fill-rule="nonzero"/></g></svg>