<svg xmlns="http://www.w3.org/2000/svg" xmlns:xlink="http://www.w3.org/1999/xlink" width="50" zoomAndPan="magnify" viewBox="0 0 37.5 37.499999" height="50" preserveAspectRatio="xMidYMid meet" version="1.0"><defs><clipPath id="0c2e0adb29"><path d="M 1.429688 3 L 35.929688 3 L 35.929688 37.007812 L 1.429688 37.007812 Z M 1.429688 3 " clip-rule="nonzero"/></clipPath></defs><g clip-path="url(#0c2e0adb29)"><path fill="#dadada" d="M 18.71875 21.871094 C 19.332031 21.871094 19.945312 21.808594 20.550781 21.6875 C 21.152344 21.566406 21.742188 21.390625 22.3125 21.152344 C 22.878906 20.914062 23.421875 20.625 23.933594 20.28125 C 24.445312 19.9375 24.921875 19.546875 25.359375 19.109375 C 25.792969 18.671875 26.183594 18.195312 26.527344 17.679688 C 26.871094 17.167969 27.160156 16.625 27.394531 16.050781 C 27.632812 15.480469 27.8125 14.890625 27.933594 14.285156 C 28.054688 13.675781 28.113281 13.0625 28.113281 12.445312 C 27.675781 -0.0273438 9.78125 -0.0273438 9.34375 12.445312 C 9.34375 13.0625 9.402344 13.675781 9.523438 14.28125 C 9.644531 14.886719 9.824219 15.476562 10.058594 16.046875 C 10.292969 16.617188 10.582031 17.160156 10.925781 17.675781 C 11.265625 18.1875 11.65625 18.664062 12.089844 19.101562 C 12.527344 19.539062 13 19.929688 13.511719 20.273438 C 14.023438 20.617188 14.5625 20.910156 15.128906 21.144531 C 15.699219 21.382812 16.285156 21.5625 16.886719 21.683594 C 17.492188 21.804688 18.101562 21.867188 18.71875 21.871094 Z M 18.730469 5.914062 C 19.152344 5.917969 19.574219 5.964844 19.988281 6.050781 C 20.40625 6.136719 20.808594 6.265625 21.199219 6.429688 C 21.589844 6.59375 21.960938 6.796875 22.3125 7.035156 C 22.664062 7.277344 22.992188 7.546875 23.289062 7.847656 C 23.589844 8.152344 23.855469 8.480469 24.089844 8.835938 C 24.324219 9.191406 24.523438 9.566406 24.683594 9.960938 C 24.84375 10.355469 24.96875 10.761719 25.050781 11.179688 C 25.132812 11.597656 25.171875 12.019531 25.171875 12.445312 C 25.171875 12.871094 25.132812 13.292969 25.050781 13.710938 C 24.96875 14.128906 24.84375 14.535156 24.683594 14.929688 C 24.523438 15.324219 24.324219 15.699219 24.089844 16.054688 C 23.855469 16.410156 23.589844 16.738281 23.289062 17.042969 C 22.992188 17.34375 22.664062 17.613281 22.3125 17.855469 C 21.960938 18.09375 21.589844 18.292969 21.199219 18.460938 C 20.808594 18.625 20.40625 18.753906 19.988281 18.839844 C 19.574219 18.925781 19.152344 18.96875 18.730469 18.972656 C 18.304688 18.96875 17.882812 18.925781 17.46875 18.839844 C 17.054688 18.753906 16.648438 18.625 16.257812 18.460938 C 15.867188 18.292969 15.496094 18.09375 15.144531 17.855469 C 14.792969 17.613281 14.46875 17.34375 14.167969 17.042969 C 13.871094 16.738281 13.601562 16.410156 13.367188 16.054688 C 13.132812 15.699219 12.9375 15.324219 12.773438 14.929688 C 12.613281 14.535156 12.492188 14.128906 12.410156 13.710938 C 12.328125 13.292969 12.285156 12.871094 12.285156 12.445312 C 12.285156 12.019531 12.328125 11.597656 12.410156 11.179688 C 12.492188 10.761719 12.613281 10.355469 12.773438 9.960938 C 12.9375 9.566406 13.132812 9.191406 13.367188 8.835938 C 13.601562 8.480469 13.871094 8.152344 14.167969 7.847656 C 14.46875 7.546875 14.792969 7.277344 15.144531 7.035156 C 15.496094 6.796875 15.867188 6.59375 16.257812 6.429688 C 16.648438 6.265625 17.054688 6.136719 17.46875 6.050781 C 17.882812 5.964844 18.304688 5.917969 18.730469 5.914062 Z M 28.226562 21.875 C 27.972656 21.71875 27.695312 21.640625 27.398438 21.648438 C 27.097656 21.65625 26.824219 21.746094 26.578125 21.914062 C 26.015625 22.371094 25.421875 22.777344 24.792969 23.128906 C 24.164062 23.484375 23.507812 23.78125 22.828125 24.019531 C 22.144531 24.261719 21.449219 24.4375 20.738281 24.558594 C 20.027344 24.679688 19.308594 24.734375 18.585938 24.730469 C 17.867188 24.726562 17.148438 24.65625 16.441406 24.527344 C 15.730469 24.398438 15.035156 24.210938 14.359375 23.960938 C 13.679688 23.710938 13.03125 23.40625 12.40625 23.042969 C 11.78125 22.683594 11.191406 22.269531 10.636719 21.804688 C 10.1875 21.597656 9.75 21.617188 9.320312 21.871094 C 8.164062 22.644531 7.113281 23.550781 6.175781 24.585938 C 5.242188 25.621094 4.445312 26.753906 3.789062 27.984375 C 3.128906 29.21875 2.632812 30.511719 2.296875 31.871094 C 1.960938 33.226562 1.792969 34.605469 1.792969 36 C 1.792969 36.195312 1.832031 36.378906 1.902344 36.554688 C 1.976562 36.734375 2.082031 36.890625 2.214844 37.027344 C 2.351562 37.160156 2.507812 37.265625 2.683594 37.339844 C 2.859375 37.414062 3.046875 37.449219 3.234375 37.449219 L 34.265625 37.449219 C 34.457031 37.449219 34.640625 37.414062 34.820312 37.339844 C 34.996094 37.265625 35.152344 37.160156 35.289062 37.027344 C 35.421875 36.890625 35.527344 36.734375 35.601562 36.554688 C 35.671875 36.378906 35.710938 36.195312 35.710938 36 C 35.707031 34.605469 35.539062 33.234375 35.203125 31.878906 C 34.867188 30.527344 34.371094 29.234375 33.71875 28.003906 C 33.066406 26.773438 32.277344 25.636719 31.347656 24.601562 C 30.417969 23.5625 29.378906 22.65625 28.226562 21.875 Z M 4.75 34.554688 C 4.949219 32.652344 5.507812 30.867188 6.429688 29.191406 C 7.351562 27.519531 8.5625 26.09375 10.0625 24.914062 C 10.695312 25.355469 11.355469 25.75 12.050781 26.089844 C 12.742188 26.429688 13.457031 26.71875 14.191406 26.949219 C 14.929688 27.179688 15.679688 27.355469 16.441406 27.472656 C 17.203125 27.585938 17.96875 27.644531 18.742188 27.644531 C 19.511719 27.644531 20.28125 27.582031 21.042969 27.464844 C 21.804688 27.34375 22.554688 27.167969 23.289062 26.933594 C 24.023438 26.699219 24.738281 26.414062 25.429688 26.070312 C 26.121094 25.726562 26.78125 25.332031 27.414062 24.886719 C 28.917969 26.066406 30.132812 27.496094 31.0625 29.175781 C 31.988281 30.851562 32.550781 32.644531 32.75 34.554688 Z M 4.75 34.554688 " fill-opacity="1" fill-rule="nonzero"/></g></svg>