<svg xmlns="http://www.w3.org/2000/svg" xmlns:xlink="http://www.w3.org/1999/xlink" width="50" zoomAndPan="magnify" viewBox="0 0 37.5 37.499999" height="50" preserveAspectRatio="xMidYMid meet" version="1.0"><defs><clipPath id="b239ac119a"><path d="M 0 3.75 L 37.007812 3.75 L 37.007812 33.75 L 0 33.75 Z M 0 3.75 " clip-rule="nonzero"/></clipPath></defs><g clip-path="url(#b239ac119a)"><path fill="#a0a0a0" d="M 36.714844 7.847656 C 36.285156 6.234375 35.015625 4.964844 33.402344 4.535156 C 30.476562 3.75 18.75 3.75 18.75 3.75 C 18.75 3.75 7.023438 3.75 4.097656 4.535156 C 2.484375 4.964844 1.214844 6.234375 0.785156 7.847656 C 0 10.773438 0 18.75 0 18.75 C 0 18.75 0 26.726562 0.785156 29.652344 C 1.214844 31.265625 2.484375 32.535156 4.097656 32.964844 C 7.023438 33.75 18.75 33.75 18.75 33.75 C 18.75 33.75 30.476562 33.75 33.402344 32.964844 C 35.015625 32.535156 36.285156 31.265625 36.714844 29.652344 C 37.5 26.726562 37.5 18.75 37.5 18.75 C 37.5 18.75 37.5 10.773438 36.714844 7.847656 Z M 15 23.621094 L 15 13.878906 C 15 13.15625 15.78125 12.707031 16.40625 13.066406 L 24.84375 17.9375 C 25.46875 18.296875 25.46875 19.203125 24.84375 19.5625 L 16.40625 24.433594 C 15.78125 24.796875 15 24.34375 15 23.621094 Z M 15 23.621094 " fill-opacity="1" fill-rule="nonzero"/></g></svg>